PathFileType	4	(X/Y/Z)	/Users/niels/Desktop/University/Third Semester/Perception and Action/Exam/Gymnastics Motion Tracking/Code for Gym Tracking/Scripts/Analyzed Data/Start Salto/st_salto_bad_id10_2_Sports2D/st_salto_bad_id10_2_Sports2D_px_person00.trc
DataRate	CameraRate	NumFrames	NumMarkers	Units	OrigDataRate	OrigDataStartFrame	OrigNumFrames
29.80392156862745	29.80392156862745	9	22	m	29.80392156862745	133	153
Frame#	Time	Hip			RHip			RKnee			RAnkle			RBigToe			RSmallToe			RHeel			LHip			LKnee			LAnkle			LBigToe			LSmallToe			LHeel			Neck			Head			Nose			RShoulder			RElbow			RWrist			LShoulder			LElbow			LWrist		
		X1	Y1	Z1	X2	Y2	Z2	X3	Y3	Z3	X4	Y4	Z4	X5	Y5	Z5	X6	Y6	Z6	X7	Y7	Z7	X8	Y8	Z8	X9	Y9	Z9	X10	Y10	Z10	X11	Y11	Z11	X12	Y12	Z12	X13	Y13	Z13	X14	Y14	Z14	X15	Y15	Z15	X16	Y16	Z16	X17	Y17	Z17	X18	Y18	Z18	X19	Y19	Z19	X20	Y20	Z20	X21	Y21	Z21	X22	Y22	Z22
133	4.4625	1.7966785106656329	-0.4912395699681667	0.0	1.805903821006937	-0.4899207085113908	0.0	1.8993898234743596	-0.5989816154659156	0.0	1.8578958477801666	-0.7316746732988063	0.0	1.9019770956464463	-0.7643277203339831	0.0	1.8936911570728394	-0.7668271185195025	0.0	1.8438638582611722	-0.7457122475988903	0.0	1.779756934153975	-0.491212180126282	0.0	1.793208311236553	-0.628405167393614	0.0	1.6918607470454983	-0.7113555244219042	0.0	1.7007967949317393	-0.7685907101103168	0.0	1.6945745708882265	-0.7606287439092237	0.0	1.673645990612371	-0.7152544057337872	0.0	1.8692675707407627	-0.3191444613017487	0.0	1.904892245137738	-0.24696881616807353	0.0	1.916924231397276	-0.29188458564235753	0.0	1.8556690709497883	-0.3303674482984628	0.0	1.7979040503660577	-0.38058963605911306	0.0	1.7959604642069755	-0.43971446732599	0.0	1.8687374501551506	-0.3429728293535158	0.0	1.8889825036598726	-0.42554939964788857	0.0	1.921572281456761	-0.4385618770123873	0.0
134	4.496052631578947	1.806298617186678	-0.48891199246739325	0.0	1.815363014570432	-0.48871047720883964	0.0	1.902804503662944	-0.5975237506453059	0.0	1.8693475177667096	-0.7341047667444421	0.0	1.9122326156652392	-0.7647206607666583	0.0	1.9041386519802983	-0.7674249923563232	0.0	1.8559380722536107	-0.7479656191095391	0.0	1.7885044682505298	-0.48958081580632556	0.0	1.8056123813804548	-0.6266673548211352	0.0	1.7021262371846861	-0.7073883905273688	0.0	1.7102692699098827	-0.7654426896821757	0.0	1.7056828641506716	-0.7575016115878725	0.0	1.6832989097069664	-0.7096171964258239	0.0	1.8806778533000799	-0.317587459570209	0.0	1.9086090253708548	-0.2454419203001946	0.0	1.9212973692644313	-0.2881761366052712	0.0	1.86685768373634	-0.32900514301183537	0.0	1.8094958726790555	-0.3809974761843049	0.0	1.8063534924475726	-0.4438526280542843	0.0	1.8786654029023415	-0.3402531614792891	0.0	1.8914169243913832	-0.4238869987979317	0.0	1.9165087104863898	-0.43872156035256726	0.0
135	4.529605263157895	1.8171672329611313	-0.4865340823650714	0.0	1.8266065256227244	-0.48752990637119953	0.0	1.9055898671193738	-0.5975587338128263	0.0	1.879555461153122	-0.7366195135956383	0.0	1.9197154939221612	-0.765507987424437	0.0	1.9118655259144894	-0.7682905652560699	0.0	1.866588275138824	-0.7503987808979207	0.0	1.7985888659545897	-0.4881072404914946	0.0	1.8208285110071225	-0.624978141329671	0.0	1.716761396320654	-0.7043430283675491	0.0	1.7253746736675253	-0.7626066365815125	0.0	1.7219518554529938	-0.7545839921003321	0.0	1.697604939103032	-0.7056457241426655	0.0	1.8925891387652616	-0.3172055362145769	0.0	1.911783122858574	-0.24543185816714497	0.0	1.924276151728417	-0.285449885912816	0.0	1.879347217833213	-0.32882402878183725	0.0	1.8232753791713925	-0.3835825148342058	0.0	1.8198002103744488	-0.4501137236668467	0.0	1.8884451560966307	-0.3379053374595301	0.0	1.890730845974844	-0.42187950367379456	0.0	1.9098194180418415	-0.44171183197394914	0.0
136	4.563157894736842	1.8294239618602839	-0.4843351770052872	0.0	1.8394348120102233	-0.4865580460021264	0.0	1.907864766974887	-0.5997084061384739	0.0	1.8875541980665114	-0.7393581287406582	0.0	1.9242688711804385	-0.7670185753971821	0.0	1.916507835033861	-0.7697619933164405	0.0	1.8747963608209794	-0.753070684145436	0.0	1.8104240714486302	-0.48690459153881377	0.0	1.8382946393072397	-0.6234275409448604	0.0	1.7365337093791338	-0.7030551514614399	0.0	1.7471211980846126	-0.7606299010886519	0.0	1.7441521222606846	-0.7523349186565347	0.0	1.7173532574170691	-0.7043497778831335	0.0	1.903982593649198	-0.3186917746327944	0.0	1.9147171838020827	-0.24859035118170245	0.0	1.9259340205044315	-0.2852060040044728	0.0	1.8919596310068405	-0.33084616359646773	0.0	1.8383800428824966	-0.38957962748358715	0.0	1.8359043835953293	-0.45882461471426456	0.0	1.8972446114275914	-0.3372355852497726	0.0	1.8869996621638148	-0.420904492357996	0.0	1.9027689842510809	-0.4487756267549908	0.0
137	4.59671052631579	1.84325359954718	-0.48259126604241415	0.0	1.8534638976154632	-0.48598643964074373	0.0	1.9098746118287282	-0.6041869285479073	0.0	1.892745732561295	-0.7425295518015437	0.0	1.9263261812987078	-0.7693889805818651	0.0	1.9183209430933028	-0.7720572367661358	0.0	1.8799059065142931	-0.7560911120704188	0.0	1.8244149803765866	-0.48609245196286727	0.0	1.8568925894661505	-0.6222880096313647	0.0	1.761561281366471	-0.7044138648772509	0.0	1.775553141137008	-0.7600398987146569	0.0	1.7722021312735499	-0.7513157888922408	0.0	1.7426599988978464	-0.7065265001347959	0.0	1.9136775064093057	-0.32279536385151414	0.0	1.917321578283977	-0.2566054359368424	0.0	1.9263051401587008	-0.28891352663494	0.0	1.9031999826042758	-0.3364554684873651	0.0	1.853291104379897	-0.4002428730542044	0.0	1.853558396231065	-0.47020749423647235	0.0	1.9044815157877988	-0.3401525573126258	0.0	1.8817910668135442	-0.42335756452832796	0.0	1.8972813070587202	-0.4601917812217822	0.0
138	4.630263157894737	1.858624612329054	-0.4815523116688889	0.0	1.8680991510531668	-0.48589382411124576	0.0	1.9118378903685418	-0.6106513486104259	0.0	1.8952353752576234	-0.7462116788832641	0.0	1.9266626805303264	-0.7724719520804934	0.0	1.9180186845651988	-0.7751342540641937	0.0	1.8820076352184856	-0.7595317605255428	0.0	1.8406387736968037	-0.48576062025041755	0.0	1.8750872431062204	-0.6220182594210343	0.0	1.7908637267431387	-0.7090858118710193	0.0	1.8092167044810676	-0.7612729270950854	0.0	1.8047297431853957	-0.7521077228091593	0.0	1.77258821563151	-0.7126336334988571	0.0	1.920740272966342	-0.32986967051931976	0.0	1.9192210766453563	-0.27043891003075954	0.0	1.9252653985803536	-0.29734674388519167	0.0	1.9118937619724612	-0.3469290086356322	0.0	1.8661633967589726	-0.41626101360888096	0.0	1.870963723519671	-0.4840824628248501	0.0	1.909954886496971	-0.34838905027131734	0.0	1.8773076423256294	-0.4315199634087971	0.0	1.8947229942586155	-0.4749083409547587	0.0
139	4.663815789473684	1.8747814924166188	-0.48127099196329676	0.0	1.8823484422489039	-0.48611627566539933	0.0	1.9137814216268556	-0.6183057857488224	0.0	1.8957217600066005	-0.7501284553745533	0.0	1.9260409282667172	-0.7758738304559621	0.0	1.9164574101025622	-0.7786540874662758	0.0	1.8819045073947245	-0.7632288122906743	0.0	1.8582991630485504	-0.48589740417521465	0.0	1.8911808267453165	-0.6231241498538581	0.0	1.8217973869045696	-0.717114722902915	0.0	1.8446447109117445	-0.7646323221321204	0.0	1.838627493249388	-0.7551396181699159	0.0	1.8045173539965564	-0.7225870339988083	0.0	1.9248187577423719	-0.3391450132504283	0.0	1.9200502026812	-0.28956813627783956	0.0	1.9226627619338938	-0.3100875258250908	0.0	1.9175525393593729	-0.3624152564129601	0.0	1.8754677192023292	-0.4367040760789044	0.0	1.8859131840672032	-0.4992908291831499	0.0	1.913654849908847	-0.36230472067940095	0.0	1.8747536158646987	-0.4455710135461989	0.0	1.894866113491608	-0.4908438198550029	0.0
140	4.697368421052632	1.8900705763052228	-0.4814209417223678	0.0	1.8948505703184617	-0.48622142948683816	0.0	1.9155546555664187	-0.6260873998057686	0.0	1.8951122593897014	-0.753742615774717	0.0	1.9250575868934752	-0.7790896285440928	0.0	1.914447289457432	-0.7820958924183021	0.0	1.8806875335228652	-0.7668121035971615	0.0	1.875457679989834	-0.48623534734424695	0.0	1.9037541682934307	-0.6257705368283322	0.0	1.8502503157316756	-0.7275137545955138	0.0	1.8768371526071155	-0.7699572612296011	0.0	1.8693955094747827	-0.7602330436082079	0.0	1.8341998026712452	-0.7353071403453495	0.0	1.9262947522702583	-0.3485037250928308	0.0	1.9197355537403582	-0.3114478231404206	0.0	1.9187252685121914	-0.32522037051164476	0.0	1.9204354881642982	-0.3809633325662149	0.0	1.88087862832625	-0.45826726973538223	0.0	1.8967066119525096	-0.513477610530578	0.0	1.9156657656100817	-0.37995321908102847	0.0	1.874093740038865	-0.46260461151658633	0.0	1.896411389915234	-0.5052800392570244	0.0
141	4.730921052631579	1.9025728490356273	-0.4815301260958531	0.0	1.9043865942960272	-0.48587905117507746	0.0	1.9169705993653867	-0.6328727696770454	0.0	1.8941609054163915	-0.7565860362404302	0.0	1.9241390419465403	-0.7816805001316941	0.0	1.9126369103178484	-0.7849630982870407	0.0	1.8792494851370702	-0.7698796497436756	0.0	1.8897400880245947	-0.4864036613812752	0.0	1.9121739226385044	-0.6293925711806018	0.0	1.8723833160419454	-0.7382582134468185	0.0	1.9014336715253852	-0.7762141205353982	0.0	1.8930211933069991	-0.7662623637350385	0.0	1.8575045551120282	-0.7484805818292717	0.0	1.926109318840379	-0.3556817983930225	0.0	1.9186464404033716	-0.3320345159222778	0.0	1.914333177503814	-0.33973258000596696	0.0	1.9213416061909352	-0.3989192388103746	0.0	1.8833666227683374	-0.47663817631869004	0.0	1.9030610148934528	-0.5242506270161721	0.0	1.916304543528818	-0.3975427794873389	0.0	1.8747978404486603	-0.47824367869708656	0.0	1.8982227856794653	-0.5158796814481867	0.0
